<svg width="53" height="58" viewBox="0 0 53 58" fill="none" xmlns="http://www.w3.org/2000/svg">
<path d="M2.83062 2C1.23062 7.9 1.93062 14.5 5.03062 19.8C8.13062 25.1 13.8306 28.9 20.0306 29.3C22.2306 29.4 24.5306 29.1 26.3306 27.9C28.1306 26.7 29.4306 24.5 29.1306 22.3C28.7306 19.8 26.3306 18.1 23.9306 17.6C21.4306 17.2 18.9306 17.8 16.6306 18.6C14.2306 19.4 11.9306 20.4 10.1306 22.1C8.33062 23.8 7.03062 26.3 7.43062 28.8C7.73062 30.6 8.73062 32.2 9.93062 33.5C14.0306 38.4 19.6306 41.9 25.5306 44.3C31.4306 46.7 37.7306 48.2 43.9306 49.6" stroke="black" stroke-width="3.7943" stroke-linecap="round"/>
<path d="M35.4308 40.7C38.1308 44.7 41.6308 48.1 45.7308 50.7C38.4308 50.7 31.0308 52.5 24.5308 55.9" stroke="black" stroke-width="3.7943" stroke-linecap="round"/>
</svg>
