<svg width="64" height="71" viewBox="0 0 64 71" fill="none" xmlns="http://www.w3.org/2000/svg">
<path d="M2 2C6.3 13.5 19.3 39.9 38.5 35.5C51.4 32.5 33.2 14.9 17.9 21.3C-23.3 38.6 47.6 57.5 61.5 64.1C64.3 65 46.2 49.4 47 50.4C43.1 46.7 59 64.1 61.6 64.1C49.6 64.1 37.2 65.6 25.7 68.6" stroke="black" stroke-width="3.7943" stroke-linecap="round"/>
<path d="M47.106 50.5109C47.2826 50.5857 47.3607 50.7803 47.5011 50.9042C47.5877 50.9806 47.6767 51.0473 47.7588 51.1294" stroke="black" stroke-width="2" stroke-linecap="round"/>
<path d="M45.9722 50.8546C46.3032 51.0833 46.5897 51.3672 46.8465 51.6754C46.8943 51.7329 46.9748 51.8197 47.0374 51.8511" stroke="black" stroke-width="2" stroke-linecap="round"/>
<path d="M48.4804 50.8889C48.1545 50.8889 48.0137 50.5568 47.7397 50.4785C47.6729 50.4594 47.5599 50.4033 47.5259 50.3391C47.4618 50.2181 47.5402 50.1453 47.6576 50.1864C47.7446 50.2168 48.1764 50.5 47.965 50.4766C47.8137 50.4597 47.6924 50.1708 47.6213 50.0642" stroke="black" stroke-width="2" stroke-linecap="round"/>
<path d="M48.6179 50.7858C48.4801 50.6531 48.3098 50.5372 48.1884 50.3887C48.1183 50.3031 48.0365 50.1682 47.9307 50.1329" stroke="black" stroke-width="2" stroke-linecap="round"/>
<path d="M48.171 50.4766C48.1553 50.3507 47.8057 50.1028 47.6899 50.0642" stroke="black" stroke-width="2" stroke-linecap="round"/>
<path d="M47.9308 50.0643C47.9157 49.9276 47.7432 49.7268 47.6216 49.6863" stroke="black" stroke-width="2" stroke-linecap="round"/>
</svg>
