<svg width="81" height="99" viewBox="0 0 81 99" fill="none" xmlns="http://www.w3.org/2000/svg">
<path d="M3.03027 3.40167C6.61484 14.1554 10.0844 24.8382 17.4567 33.7319C23.7306 41.3003 32.5037 48.5319 42.4087 50.3512C47.6078 51.3061 49.943 50.5359 52.4726 45.7578C54.4485 42.0256 55.7399 37.8083 53.0959 34.1474C48.8349 28.2476 41.9499 28.7142 35.3456 28.7461C31.0333 28.7669 27.0443 29.3124 22.8811 30.408C19.1015 31.4026 14.8583 32.1845 11.8016 34.8167C7.47974 38.5383 4.83491 46.5751 8.01606 51.6899C13.7452 60.9015 23.4157 67.844 32.2987 73.8028C40.3272 79.1884 48.0152 84.2129 57.6662 85.898C61.1014 86.4978 64.554 87.2258 67.9609 87.9754C70.9899 88.6417 79.7227 91.6969 76.9861 90.2374C73.5106 88.3838 70.223 84.7208 67.4762 81.974C65.7675 80.2653 64.6235 78.1042 63.2752 76.111C62.4451 74.8839 61.505 73.7559 60.6438 72.5564C60.4451 72.2796 60.2879 71.3025 60.2052 71.6331C59.9288 72.7387 62.2241 76.1234 62.8366 77.0805C63.8346 78.6399 65.1306 79.9914 66.1836 81.5123C68.3445 84.6337 71.3933 87.1517 74.6779 88.991C75.3973 89.3939 76.258 90.2374 77.1246 90.2374C81.0844 90.2374 69.2021 90.4602 65.2603 90.8376C54.2633 91.8905 43.1258 93.4422 32.5295 96.4697" stroke="black" stroke-width="5" stroke-linecap="round"/>
</svg>
