<svg width="42" height="25" viewBox="0 0 42 25" fill="none" xmlns="http://www.w3.org/2000/svg">
<path fill-rule="evenodd" clip-rule="evenodd" d="M10.4167 8.33333C11.8053 2.77799 15.278 0 20.8333 0C29.1667 0 30.2083 6.25 34.375 7.29167C37.153 7.98633 39.5833 6.94466 41.6667 4.16667C40.278 9.722 36.8053 12.5 31.25 12.5C22.9167 12.5 21.875 6.25 17.7083 5.20833C14.9303 4.51367 12.5 5.55534 10.4167 8.33333ZM0 20.8333C1.38867 15.278 4.86133 12.5 10.4167 12.5C18.75 12.5 19.7917 18.75 23.9583 19.7917C26.7363 20.4863 29.1667 19.4447 31.25 16.6667C29.8613 22.222 26.3887 25 20.8333 25C12.5 25 11.4583 18.75 7.29167 17.7083C4.51367 17.0137 2.08333 18.0553 0 20.8333Z" fill="black"/>
</svg>
